<svg width="103" height="103" viewBox="0 0 103 103" fill="none" xmlns="http://www.w3.org/2000/svg">
<g filter="url(#filter0_d_18_441)">
<g clip-path="url(#clip0_18_441)">
<path d="M26.7524 36.3969C29.1551 37.4934 30.6791 40.9054 30.8691 45.6673C30.9997 48.8221 30.6316 51.205 29.6697 53.2871C27.4372 58.0727 23.4235 58.2429 21.1078 53.6513C20.1182 51.7196 19.6907 49.594 19.6907 46.6134C19.7145 43.4348 20.0549 41.5704 21.0643 39.5081C22.5012 36.5711 24.607 35.4113 26.7524 36.3969ZM65.4174 36.6977C67.7568 38.2415 69.3678 43.1379 69.0432 47.6861C68.6791 53.1129 66.2764 57.0198 63.3591 57.0198C61.748 57.0198 60.0974 55.6027 59.0247 53.2871C57.2435 49.4238 57.3503 42.944 59.282 39.1677C60.7189 36.3336 63.3353 35.2846 65.4174 36.6977ZM53.0357 0.11482C53.9184 0.241486 54.0451 0.35232 54.5399 1.27065C55.2682 2.60065 55.7195 3.07565 57.0732 3.9544C58.3162 4.74607 58.3162 4.78961 57.8887 6.82815C57.5205 8.54607 57.7343 10.2402 58.5299 11.7642C59.6897 14.06 62.9276 16.4627 65.8924 17.2148C67.0047 17.5156 67.4559 17.5354 68.8097 17.3019C69.6884 17.1713 70.5474 17.1079 70.7176 17.1713C70.9116 17.2584 71.3628 17.9629 71.7468 18.7586C72.6057 20.6071 74.7551 22.8159 76.4691 23.6115C79.2597 24.9177 82.2878 24.8544 85.2012 23.4136C86.0166 23.0098 86.832 22.7525 87.0259 22.8159C87.1962 22.8792 87.6909 23.37 88.1184 23.8886C88.5499 24.4269 89.4089 25.1117 90.0105 25.4125C90.9962 25.9271 91.3603 25.9904 92.9912 25.9667C94.2776 25.9469 94.9228 26.0142 95.0732 26.2042C95.6947 26.9563 97.4087 34.9165 98.141 40.3909C98.7862 45.3032 98.8495 56.2915 98.2478 61.0929C97.4561 67.6004 96.2766 73.1777 94.6457 78.1969C93.4859 81.7594 92.4568 84.0988 90.3312 87.9186C87.113 93.7136 85.8661 95 83.507 95C82.8492 95.0018 82.1937 94.9221 81.5555 94.7625C80.1582 94.2915 78.0128 92.6408 74.7076 89.5058C70.8047 85.8167 69.1501 84.5302 67.0918 83.5209C64.5822 82.274 62.1122 82.1671 59.9668 83.22C59.4522 83.4773 57.9955 84.6371 56.7724 85.8167C54.1995 88.2629 53.2099 88.7973 50.9537 88.9477C48.167 89.1219 46.5995 88.4133 42.2216 85.0211C40.3572 83.5842 38.9837 82.939 37.4597 82.8123C35.6151 82.6619 34.2614 83.1329 31.2807 84.9379C28.3397 86.7192 26.7722 87.2733 24.7337 87.2733C20.4864 87.2733 16.7932 84.6609 12.9972 78.9727C8.7697 72.5959 5.67824 63.6896 4.67283 54.8744C4.28491 51.5494 4.22158 44.8321 4.5422 41.5467C6.23637 24.6604 14.4143 11.7404 27.6114 5.15774C31.728 3.0994 36.2564 1.65857 41.426 0.77982C45.2893 0.134611 50.9774 -0.186014 53.0357 0.11482ZM44.173 5.97315C34.2416 6.95878 24.5832 12.3223 18.7685 20.049C12.7162 28.0963 9.34762 41.42 10.5747 52.4677C11.3664 59.7906 14.3905 68.0913 18.4478 74.1871C20.5062 77.2746 21.2978 78.1336 22.7387 78.8421C24.9276 79.9148 27.1799 79.5308 29.9705 77.619C32.4603 75.9011 35.0372 75.1529 37.8001 75.3034C40.6105 75.4736 41.6872 76.0317 45.9345 79.6575C48.4441 81.8029 50.6132 82.0404 53.0357 80.4294C53.5741 80.0652 54.7774 79.1429 55.7195 78.3711C58.7437 75.8615 61.0632 74.9788 64.7326 74.959C69.3243 74.9352 72.3049 76.6531 76.5324 81.8069C79.9682 85.9631 81.2982 86.8261 83.1824 86.1175C86.2739 84.9379 89.3851 77.8763 91.4237 67.45C94.1272 53.675 93.6126 41.6338 90.0303 34.3188C88.8705 31.9121 87.4772 30.3684 86.167 29.9844C85.3516 29.7469 85.0982 29.7667 83.3803 30.3248C81.7257 30.8631 81.1478 30.9502 79.0024 30.9502C76.9837 30.9502 76.2751 30.8394 75.0757 30.4356C72.7799 29.6598 71.7507 28.7177 69.1937 25.0682C68.0141 23.374 66.9849 22.8159 64.1943 22.2577C59.0485 21.2682 56.9426 20.3696 55.1178 18.3944C53.3999 16.5498 52.3074 14.0798 51.5157 10.264C51.298 9.14773 50.9141 7.92461 50.6766 7.53669C49.7978 6.12357 47.6722 5.60503 44.173 5.97315Z" fill="#003050"/>
</g>
</g>
<defs>
<filter id="filter0_d_18_441" x="0" y="0" width="103" height="103" filterUnits="userSpaceOnUse" color-interpolation-filters="sRGB">
<feFlood flood-opacity="0" result="BackgroundImageFix"/>
<feColorMatrix in="SourceAlpha" type="matrix" values="0 0 0 0 0 0 0 0 0 0 0 0 0 0 0 0 0 0 127 0" result="hardAlpha"/>
<feOffset dy="4"/>
<feGaussianBlur stdDeviation="2"/>
<feComposite in2="hardAlpha" operator="out"/>
<feColorMatrix type="matrix" values="0 0 0 0 0 0 0 0 0 0 0 0 0 0 0 0 0 0 0.25 0"/>
<feBlend mode="normal" in2="BackgroundImageFix" result="effect1_dropShadow_18_441"/>
<feBlend mode="normal" in="SourceGraphic" in2="effect1_dropShadow_18_441" result="shape"/>
</filter>
<clipPath id="clip0_18_441">
<rect width="95" height="95" fill="white" transform="translate(4)"/>
</clipPath>
</defs>
</svg>
